<svg width="221" height="223" xmlns="http://www.w3.org/2000/svg" xmlns:xlink="http://www.w3.org/1999/xlink" xml:space="preserve" overflow="hidden"><defs><clipPath id="clip0"><rect x="1024" y="482" width="221" height="223"/></clipPath><clipPath id="clip1"><rect x="1024" y="483" width="221" height="222"/></clipPath><clipPath id="clip2"><rect x="1024" y="483" width="221" height="222"/></clipPath><clipPath id="clip3"><rect x="1024" y="483" width="221" height="222"/></clipPath></defs><g clip-path="url(#clip0)" transform="translate(-1024 -482)"><g clip-path="url(#clip1)"><g clip-path="url(#clip2)"><g clip-path="url(#clip3)"><path d="M43.1325-0.000328995 43.1325 43.1217 86.2547 43.1217 86.2547 129.366 172.499 129.366 172.499 172.488 215.621 172.488 215.621 118.585C215.621 100.723 201.141 86.2439 183.279 86.2439L129.377 86.2439 129.377 32.3411C129.377 14.4794 114.897-0.000328995 97.0352-0.000328995L43.1325-0.000328995Z" fill="#1D1A1F" fill-rule="nonzero" fill-opacity="1" transform="matrix(1 0 0 1.02964 1024 483)"/><path d="M43.122 43.1216 0 43.1216 0 183.268C0 201.13 14.4799 215.61 32.3415 215.61L172.488 215.61 172.488 172.488 43.122 172.488 43.122 43.1216Z" fill="#1D1A1F" fill-rule="nonzero" fill-opacity="1" transform="matrix(1 0 0 1.02964 1024 483)"/></g></g></g></g></svg>