<svg width="652" height="225" viewBox="0 0 652 225" fill="none" xmlns="http://www.w3.org/2000/svg">
<path fill-rule="evenodd" clip-rule="evenodd" d="M651.021 86.9686V142.538H618.398V92.133C618.398 78.2924 611.378 72.0951 600.435 72.0951C594.653 72.0951 588.459 75.1937 582.678 81.391V142.538H550.054V0H582.678V51.6441C590.524 45.8599 598.989 42.5547 609.313 42.5547C634.09 42.5547 651.021 59.2874 651.021 86.9686ZM425.549 86.9686V142.538H392.925V92.133C392.925 78.2924 385.905 72.0951 374.962 72.0951C369.181 72.0951 362.986 75.1937 357.205 81.391V142.538H324.582V45.2402H357.205V51.6441C365.051 45.8599 373.517 42.5547 383.84 42.5547C408.824 42.5547 425.549 59.2874 425.549 86.9686ZM306.825 142.538V45.2402H274.614V106.18C268.833 112.377 262.639 115.889 256.651 115.889C245.914 115.889 238.687 109.279 238.687 95.4382V45.2402H206.064V100.396C206.064 128.077 222.789 145.223 247.566 145.223C257.89 145.223 266.355 141.711 274.201 135.721V142.538H306.825ZM539.318 102.668H508.553C506.901 111.551 499.261 117.748 489.35 117.748C475.31 117.748 467.051 107.006 467.051 93.7856C467.051 80.5647 475.31 70.0293 489.35 70.0293C499.055 70.0293 506.694 76.2266 508.346 85.1094H539.111C536.633 60.1137 515.986 42.5547 489.144 42.5547C458.585 42.5547 435.873 64.2452 435.873 93.7856C435.873 123.533 458.585 145.223 489.144 145.223C516.192 145.223 536.84 127.664 539.318 102.668ZM69.1697 112.377H33.8622V5.9907H0V142.538H89.198C79.4936 135.514 72.0604 124.979 69.1697 112.377ZM189.133 45.2402V142.538H156.716V137.373C149.489 142.124 140.817 145.223 130.08 145.223C103.858 145.223 81.7648 122.706 81.7648 93.7856C81.7648 64.6584 103.858 42.5547 130.08 42.5547C140.817 42.5547 149.489 45.4468 156.716 50.198V45.2402H189.133ZM156.716 108.866V78.7055C150.522 71.8885 143.708 70.0293 136.688 70.0293C123.473 70.0293 113.562 80.3581 113.562 93.7856C113.562 107.213 123.473 117.542 136.688 117.542C143.501 117.542 150.315 115.683 156.716 108.866ZM369.517 176.302H374.092V190.364C374.956 189.265 376.014 188.431 377.264 187.862C378.527 187.272 379.995 186.977 381.667 186.977C383.339 186.977 384.823 187.305 386.119 187.96C387.414 188.6 388.496 189.518 389.365 190.715C390.251 191.912 390.923 193.347 391.382 195.019C391.841 196.675 392.071 198.52 392.071 200.553V201.07C392.071 203.005 391.841 204.8 391.382 206.456C390.923 208.096 390.251 209.522 389.365 210.736C388.48 211.949 387.398 212.892 386.119 213.564C384.84 214.237 383.372 214.573 381.716 214.573C380.027 214.573 378.543 214.286 377.264 213.712C376.002 213.122 374.936 212.277 374.067 211.179L374.026 211.126L374.005 211.1C373.981 211.068 373.957 211.037 373.932 211.005L373.698 214.081H369.517V176.302ZM374.092 194.948V206.506C374.192 206.712 374.299 206.917 374.411 207.12C375.018 208.17 375.821 209.031 376.822 209.703C377.838 210.375 379.093 210.711 380.585 210.711C381.815 210.711 382.864 210.465 383.733 209.973C384.618 209.465 385.332 208.768 385.873 207.883C386.43 206.997 386.84 205.973 387.103 204.808C387.365 203.644 387.496 202.398 387.496 201.07V200.553C387.496 199.225 387.373 197.979 387.127 196.815C386.881 195.634 386.488 194.601 385.947 193.716C385.406 192.814 384.692 192.109 383.807 191.601C382.921 191.076 381.831 190.814 380.536 190.814C379.388 190.814 378.388 191.01 377.535 191.404C376.699 191.797 375.985 192.33 375.395 193.003C374.879 193.576 374.445 194.224 374.092 194.948ZM393.597 187.469L403.096 213.794L402.107 216.491C401.746 217.59 401.312 218.451 400.803 219.074C400.311 219.713 399.705 220.164 398.983 220.426C398.262 220.705 397.385 220.845 396.352 220.845C396.237 220.845 396.032 220.828 395.737 220.795C395.531 220.783 395.365 220.771 395.24 220.759C395.212 220.756 395.186 220.754 395.163 220.751L395.122 220.746L395.146 224.436C395.376 224.501 395.769 224.583 396.327 224.682C396.884 224.78 397.344 224.829 397.704 224.829C398.918 224.829 399.959 224.608 400.828 224.165C401.713 223.739 402.468 223.181 403.091 222.493C403.714 221.804 404.222 221.074 404.616 220.304C405.026 219.549 405.353 218.844 405.599 218.188L416.274 187.469H411.404L405.226 207.379L398.565 187.469H393.597ZM459.097 214.081V178.27H454.399V205.964L436.297 178.27H431.55V214.081H436.297V186.46L454.325 214.081H459.097ZM478.995 182.156V214.081H474.322V182.156H462.836V178.27H474.322H478.995H490.506V182.156H478.995ZM508.437 214.081V182.156H519.948V178.27H508.437H503.764H492.278V182.156H503.764V214.081H508.437ZM544.447 214.081H539.503H536.97H534.756V178.27H536.822H539.503H544.89C547.234 178.27 549.374 178.663 551.309 179.45C553.244 180.221 554.908 181.344 556.302 182.82C557.712 184.279 558.794 186.05 559.549 188.133C560.303 190.199 560.68 192.527 560.68 195.118V197.258C560.68 199.848 560.303 202.185 559.549 204.267C558.794 206.333 557.704 208.096 556.277 209.555C554.867 211.015 553.162 212.138 551.162 212.925C549.177 213.696 546.939 214.081 544.447 214.081ZM544.447 210.219H539.503V182.156H544.89C546.661 182.156 548.227 182.443 549.587 183.017C550.965 183.591 552.129 184.435 553.08 185.55C554.031 186.649 554.753 188.001 555.244 189.608C555.736 191.199 555.982 193.019 555.982 195.069V197.258C555.982 199.865 555.548 202.144 554.679 204.095C553.826 206.03 552.547 207.538 550.842 208.621C549.137 209.686 547.005 210.219 544.447 210.219ZM579.595 178.27H580.628L594.328 214.081H589.458L586.047 204.71H571.07L567.666 214.081H562.821L576.471 178.27H577.504H579.595ZM572.481 200.824H584.633L578.551 184.115L572.481 200.824ZM608.151 182.156V214.081H603.478V182.156H591.992V178.27H603.478H608.151H619.662V182.156H608.151ZM635.33 178.27H636.363L650.063 214.081H645.193L641.782 204.71H626.805L623.401 214.081H618.556L632.207 178.27H633.24H635.33ZM628.217 200.824H640.368L634.286 184.114L628.217 200.824Z" fill="#1C1B1F"/>
</svg>
